<mxfile host="Electron" modified="2024-03-27T10:45:02.490Z" agent="Mozilla/5.0 (Windows NT 10.0; Win64; x64) AppleWebKit/537.36 (KHTML, like Gecko) draw.io/24.0.4 Chrome/120.0.6099.109 Electron/28.1.0 Safari/537.36" etag="Uf4X94gdUPD0joR7YLjE" version="24.0.4" type="device">
  <diagram name="Pagina-1" id="TDB7Om6y4eRdLs2I53dj">
    <mxGraphModel dx="2295" dy="786" grid="1" gridSize="10" guides="1" tooltips="1" connect="1" arrows="1" fold="1" page="1" pageScale="1" pageWidth="827" pageHeight="1169" math="0" shadow="0">
      <root>
        <mxCell id="0" />
        <mxCell id="1" parent="0" />
        <mxCell id="UatRI143EG0oYuWDaqPp-15" style="edgeStyle=orthogonalEdgeStyle;rounded=0;orthogonalLoop=1;jettySize=auto;html=1;exitX=0;exitY=0.5;exitDx=0;exitDy=0;entryX=1;entryY=0.5;entryDx=0;entryDy=0;endArrow=doubleBlock;endFill=1;" parent="1" source="UatRI143EG0oYuWDaqPp-1" target="UatRI143EG0oYuWDaqPp-10" edge="1">
          <mxGeometry relative="1" as="geometry" />
        </mxCell>
        <mxCell id="UatRI143EG0oYuWDaqPp-20" style="edgeStyle=orthogonalEdgeStyle;rounded=0;orthogonalLoop=1;jettySize=auto;html=1;exitX=0.5;exitY=0;exitDx=0;exitDy=0;entryX=0.5;entryY=1;entryDx=0;entryDy=0;" parent="1" source="UatRI143EG0oYuWDaqPp-1" target="UatRI143EG0oYuWDaqPp-9" edge="1">
          <mxGeometry relative="1" as="geometry" />
        </mxCell>
        <mxCell id="-s2COhOGXW_Y84IHk0uc-15" style="edgeStyle=orthogonalEdgeStyle;rounded=0;orthogonalLoop=1;jettySize=auto;html=1;exitX=0.25;exitY=1;exitDx=0;exitDy=0;entryX=0;entryY=0.5;entryDx=0;entryDy=0;" edge="1" parent="1" source="UatRI143EG0oYuWDaqPp-1" target="-s2COhOGXW_Y84IHk0uc-4">
          <mxGeometry relative="1" as="geometry" />
        </mxCell>
        <mxCell id="-s2COhOGXW_Y84IHk0uc-16" style="edgeStyle=orthogonalEdgeStyle;rounded=0;orthogonalLoop=1;jettySize=auto;html=1;exitX=0.25;exitY=1;exitDx=0;exitDy=0;entryX=0;entryY=0.5;entryDx=0;entryDy=0;" edge="1" parent="1" source="UatRI143EG0oYuWDaqPp-1" target="-s2COhOGXW_Y84IHk0uc-1">
          <mxGeometry relative="1" as="geometry">
            <Array as="points">
              <mxPoint x="930" y="405" />
            </Array>
          </mxGeometry>
        </mxCell>
        <mxCell id="-s2COhOGXW_Y84IHk0uc-17" style="edgeStyle=orthogonalEdgeStyle;rounded=0;orthogonalLoop=1;jettySize=auto;html=1;exitX=0.25;exitY=1;exitDx=0;exitDy=0;entryX=0;entryY=0.5;entryDx=0;entryDy=0;" edge="1" parent="1" source="UatRI143EG0oYuWDaqPp-1" target="-s2COhOGXW_Y84IHk0uc-6">
          <mxGeometry relative="1" as="geometry" />
        </mxCell>
        <mxCell id="-s2COhOGXW_Y84IHk0uc-46" style="edgeStyle=orthogonalEdgeStyle;rounded=0;orthogonalLoop=1;jettySize=auto;html=1;exitX=1;exitY=0.5;exitDx=0;exitDy=0;entryX=0;entryY=0.5;entryDx=0;entryDy=0;" edge="1" parent="1" source="UatRI143EG0oYuWDaqPp-1" target="-s2COhOGXW_Y84IHk0uc-45">
          <mxGeometry relative="1" as="geometry" />
        </mxCell>
        <mxCell id="-s2COhOGXW_Y84IHk0uc-58" style="edgeStyle=orthogonalEdgeStyle;rounded=0;orthogonalLoop=1;jettySize=auto;html=1;exitX=0.25;exitY=1;exitDx=0;exitDy=0;entryX=0;entryY=0.5;entryDx=0;entryDy=0;" edge="1" parent="1" source="UatRI143EG0oYuWDaqPp-1" target="-s2COhOGXW_Y84IHk0uc-54">
          <mxGeometry relative="1" as="geometry" />
        </mxCell>
        <mxCell id="-s2COhOGXW_Y84IHk0uc-59" style="edgeStyle=orthogonalEdgeStyle;rounded=0;orthogonalLoop=1;jettySize=auto;html=1;exitX=0.25;exitY=1;exitDx=0;exitDy=0;entryX=0;entryY=0.5;entryDx=0;entryDy=0;" edge="1" parent="1" source="UatRI143EG0oYuWDaqPp-1" target="-s2COhOGXW_Y84IHk0uc-56">
          <mxGeometry relative="1" as="geometry" />
        </mxCell>
        <mxCell id="UatRI143EG0oYuWDaqPp-1" value="Prodotto" style="rounded=0;whiteSpace=wrap;html=1;" parent="1" vertex="1">
          <mxGeometry x="900" y="320" width="120" height="60" as="geometry" />
        </mxCell>
        <mxCell id="UatRI143EG0oYuWDaqPp-11" style="edgeStyle=orthogonalEdgeStyle;rounded=0;orthogonalLoop=1;jettySize=auto;html=1;exitX=1;exitY=0.5;exitDx=0;exitDy=0;entryX=0;entryY=0.5;entryDx=0;entryDy=0;endArrow=doubleBlock;endFill=1;" parent="1" source="UatRI143EG0oYuWDaqPp-2" target="UatRI143EG0oYuWDaqPp-4" edge="1">
          <mxGeometry relative="1" as="geometry" />
        </mxCell>
        <mxCell id="-s2COhOGXW_Y84IHk0uc-31" style="edgeStyle=orthogonalEdgeStyle;rounded=0;orthogonalLoop=1;jettySize=auto;html=1;exitX=0.25;exitY=1;exitDx=0;exitDy=0;entryX=0;entryY=0.5;entryDx=0;entryDy=0;" edge="1" parent="1" source="UatRI143EG0oYuWDaqPp-2" target="-s2COhOGXW_Y84IHk0uc-25">
          <mxGeometry relative="1" as="geometry" />
        </mxCell>
        <mxCell id="-s2COhOGXW_Y84IHk0uc-32" style="edgeStyle=orthogonalEdgeStyle;rounded=0;orthogonalLoop=1;jettySize=auto;html=1;exitX=0.25;exitY=1;exitDx=0;exitDy=0;entryX=0;entryY=0.5;entryDx=0;entryDy=0;" edge="1" parent="1" source="UatRI143EG0oYuWDaqPp-2" target="-s2COhOGXW_Y84IHk0uc-27">
          <mxGeometry relative="1" as="geometry" />
        </mxCell>
        <mxCell id="-s2COhOGXW_Y84IHk0uc-33" style="edgeStyle=orthogonalEdgeStyle;rounded=0;orthogonalLoop=1;jettySize=auto;html=1;exitX=0.25;exitY=1;exitDx=0;exitDy=0;entryX=0;entryY=0.5;entryDx=0;entryDy=0;" edge="1" parent="1" source="UatRI143EG0oYuWDaqPp-2" target="-s2COhOGXW_Y84IHk0uc-29">
          <mxGeometry relative="1" as="geometry" />
        </mxCell>
        <mxCell id="UatRI143EG0oYuWDaqPp-2" value="Utente" style="rounded=0;whiteSpace=wrap;html=1;" parent="1" vertex="1">
          <mxGeometry x="-90" y="320" width="120" height="60" as="geometry" />
        </mxCell>
        <mxCell id="UatRI143EG0oYuWDaqPp-12" style="edgeStyle=orthogonalEdgeStyle;rounded=0;orthogonalLoop=1;jettySize=auto;html=1;exitX=0;exitY=0.5;exitDx=0;exitDy=0;entryX=1;entryY=0.5;entryDx=0;entryDy=0;" parent="1" source="UatRI143EG0oYuWDaqPp-3" target="UatRI143EG0oYuWDaqPp-4" edge="1">
          <mxGeometry relative="1" as="geometry" />
        </mxCell>
        <mxCell id="UatRI143EG0oYuWDaqPp-14" style="edgeStyle=orthogonalEdgeStyle;rounded=0;orthogonalLoop=1;jettySize=auto;html=1;exitX=1;exitY=0.5;exitDx=0;exitDy=0;entryX=0;entryY=0.5;entryDx=0;entryDy=0;endArrow=doubleBlock;endFill=1;" parent="1" source="UatRI143EG0oYuWDaqPp-3" target="UatRI143EG0oYuWDaqPp-8" edge="1">
          <mxGeometry relative="1" as="geometry" />
        </mxCell>
        <mxCell id="-s2COhOGXW_Y84IHk0uc-48" style="edgeStyle=orthogonalEdgeStyle;rounded=0;orthogonalLoop=1;jettySize=auto;html=1;exitX=0.25;exitY=1;exitDx=0;exitDy=0;entryX=0;entryY=0.5;entryDx=0;entryDy=0;" edge="1" parent="1" source="UatRI143EG0oYuWDaqPp-3" target="-s2COhOGXW_Y84IHk0uc-34">
          <mxGeometry relative="1" as="geometry" />
        </mxCell>
        <mxCell id="-s2COhOGXW_Y84IHk0uc-49" style="edgeStyle=orthogonalEdgeStyle;rounded=0;orthogonalLoop=1;jettySize=auto;html=1;exitX=0.25;exitY=1;exitDx=0;exitDy=0;entryX=0;entryY=0.5;entryDx=0;entryDy=0;" edge="1" parent="1" source="UatRI143EG0oYuWDaqPp-3" target="-s2COhOGXW_Y84IHk0uc-36">
          <mxGeometry relative="1" as="geometry" />
        </mxCell>
        <mxCell id="-s2COhOGXW_Y84IHk0uc-50" style="edgeStyle=orthogonalEdgeStyle;rounded=0;orthogonalLoop=1;jettySize=auto;html=1;exitX=0.25;exitY=1;exitDx=0;exitDy=0;entryX=0;entryY=0.5;entryDx=0;entryDy=0;" edge="1" parent="1" source="UatRI143EG0oYuWDaqPp-3" target="-s2COhOGXW_Y84IHk0uc-38">
          <mxGeometry relative="1" as="geometry" />
        </mxCell>
        <mxCell id="-s2COhOGXW_Y84IHk0uc-51" style="edgeStyle=orthogonalEdgeStyle;rounded=0;orthogonalLoop=1;jettySize=auto;html=1;exitX=0.25;exitY=1;exitDx=0;exitDy=0;entryX=0;entryY=0.5;entryDx=0;entryDy=0;" edge="1" parent="1" source="UatRI143EG0oYuWDaqPp-3" target="-s2COhOGXW_Y84IHk0uc-40">
          <mxGeometry relative="1" as="geometry" />
        </mxCell>
        <mxCell id="-s2COhOGXW_Y84IHk0uc-52" style="edgeStyle=orthogonalEdgeStyle;rounded=0;orthogonalLoop=1;jettySize=auto;html=1;exitX=0.25;exitY=1;exitDx=0;exitDy=0;entryX=0;entryY=0.5;entryDx=0;entryDy=0;" edge="1" parent="1" source="UatRI143EG0oYuWDaqPp-3" target="-s2COhOGXW_Y84IHk0uc-42">
          <mxGeometry relative="1" as="geometry" />
        </mxCell>
        <mxCell id="UatRI143EG0oYuWDaqPp-3" value="Ordine" style="rounded=0;whiteSpace=wrap;html=1;" parent="1" vertex="1">
          <mxGeometry x="270" y="320" width="120" height="60" as="geometry" />
        </mxCell>
        <mxCell id="UatRI143EG0oYuWDaqPp-4" value="effettua" style="rhombus;whiteSpace=wrap;html=1;" parent="1" vertex="1">
          <mxGeometry x="100" y="310" width="80" height="80" as="geometry" />
        </mxCell>
        <mxCell id="UatRI143EG0oYuWDaqPp-21" style="edgeStyle=orthogonalEdgeStyle;rounded=0;orthogonalLoop=1;jettySize=auto;html=1;exitX=0.5;exitY=1;exitDx=0;exitDy=0;entryX=0.5;entryY=0;entryDx=0;entryDy=0;endArrow=doubleBlock;endFill=1;" parent="1" source="UatRI143EG0oYuWDaqPp-6" target="UatRI143EG0oYuWDaqPp-9" edge="1">
          <mxGeometry relative="1" as="geometry" />
        </mxCell>
        <mxCell id="-s2COhOGXW_Y84IHk0uc-24" style="edgeStyle=orthogonalEdgeStyle;rounded=0;orthogonalLoop=1;jettySize=auto;html=1;exitX=1;exitY=0.5;exitDx=0;exitDy=0;entryX=0;entryY=0.5;entryDx=0;entryDy=0;" edge="1" parent="1" source="UatRI143EG0oYuWDaqPp-6" target="-s2COhOGXW_Y84IHk0uc-18">
          <mxGeometry relative="1" as="geometry" />
        </mxCell>
        <mxCell id="UatRI143EG0oYuWDaqPp-6" value="Categoria" style="rounded=0;whiteSpace=wrap;html=1;" parent="1" vertex="1">
          <mxGeometry x="900" y="90" width="120" height="60" as="geometry" />
        </mxCell>
        <mxCell id="UatRI143EG0oYuWDaqPp-16" style="edgeStyle=orthogonalEdgeStyle;rounded=0;orthogonalLoop=1;jettySize=auto;html=1;exitX=1;exitY=0.5;exitDx=0;exitDy=0;entryX=0;entryY=0.5;entryDx=0;entryDy=0;" parent="1" source="UatRI143EG0oYuWDaqPp-7" target="UatRI143EG0oYuWDaqPp-10" edge="1">
          <mxGeometry relative="1" as="geometry" />
        </mxCell>
        <mxCell id="UatRI143EG0oYuWDaqPp-17" style="edgeStyle=orthogonalEdgeStyle;rounded=0;orthogonalLoop=1;jettySize=auto;html=1;exitX=0;exitY=0.5;exitDx=0;exitDy=0;entryX=1;entryY=0.5;entryDx=0;entryDy=0;" parent="1" source="UatRI143EG0oYuWDaqPp-7" target="UatRI143EG0oYuWDaqPp-8" edge="1">
          <mxGeometry relative="1" as="geometry" />
        </mxCell>
        <mxCell id="UatRI143EG0oYuWDaqPp-7" value="Ordine_Prodotto" style="rounded=0;whiteSpace=wrap;html=1;" parent="1" vertex="1">
          <mxGeometry x="590" y="320" width="120" height="60" as="geometry" />
        </mxCell>
        <mxCell id="UatRI143EG0oYuWDaqPp-8" value="corrisponde" style="rhombus;whiteSpace=wrap;html=1;" parent="1" vertex="1">
          <mxGeometry x="450" y="310" width="80" height="80" as="geometry" />
        </mxCell>
        <mxCell id="UatRI143EG0oYuWDaqPp-9" value="appartiene" style="rhombus;whiteSpace=wrap;html=1;" parent="1" vertex="1">
          <mxGeometry x="920" y="200" width="80" height="80" as="geometry" />
        </mxCell>
        <mxCell id="UatRI143EG0oYuWDaqPp-10" value="corrisponde" style="rhombus;whiteSpace=wrap;html=1;" parent="1" vertex="1">
          <mxGeometry x="760" y="310" width="80" height="80" as="geometry" />
        </mxCell>
        <mxCell id="UatRI143EG0oYuWDaqPp-13" value="" style="endArrow=none;html=1;rounded=0;" parent="1" edge="1">
          <mxGeometry width="50" height="50" relative="1" as="geometry">
            <mxPoint x="50" y="370" as="sourcePoint" />
            <mxPoint x="50" y="330" as="targetPoint" />
          </mxGeometry>
        </mxCell>
        <mxCell id="UatRI143EG0oYuWDaqPp-18" value="&lt;b&gt;&lt;font style=&quot;font-size: 18px;&quot;&gt;DIAGRAMMA ER - NEGOZIO DI ABBIGLIAMENTO&lt;/font&gt;&lt;/b&gt;" style="text;html=1;align=center;verticalAlign=middle;whiteSpace=wrap;rounded=0;" parent="1" vertex="1">
          <mxGeometry x="-100" y="100.5" width="390" height="79" as="geometry" />
        </mxCell>
        <mxCell id="UatRI143EG0oYuWDaqPp-19" value="" style="endArrow=none;html=1;rounded=0;" parent="1" edge="1">
          <mxGeometry width="50" height="50" relative="1" as="geometry">
            <mxPoint x="890" y="370" as="sourcePoint" />
            <mxPoint x="890" y="330" as="targetPoint" />
          </mxGeometry>
        </mxCell>
        <mxCell id="-s2COhOGXW_Y84IHk0uc-1" value="" style="ellipse;whiteSpace=wrap;html=1;aspect=fixed;" vertex="1" parent="1">
          <mxGeometry x="980" y="390" width="30" height="30" as="geometry" />
        </mxCell>
        <mxCell id="-s2COhOGXW_Y84IHk0uc-2" value="nome" style="text;html=1;align=center;verticalAlign=middle;whiteSpace=wrap;rounded=0;" vertex="1" parent="1">
          <mxGeometry x="1010" y="390" width="60" height="30" as="geometry" />
        </mxCell>
        <mxCell id="-s2COhOGXW_Y84IHk0uc-4" value="" style="ellipse;whiteSpace=wrap;html=1;aspect=fixed;" vertex="1" parent="1">
          <mxGeometry x="980" y="430" width="30" height="30" as="geometry" />
        </mxCell>
        <mxCell id="-s2COhOGXW_Y84IHk0uc-5" value="marca" style="text;html=1;align=center;verticalAlign=middle;whiteSpace=wrap;rounded=0;" vertex="1" parent="1">
          <mxGeometry x="1010" y="430" width="60" height="30" as="geometry" />
        </mxCell>
        <mxCell id="-s2COhOGXW_Y84IHk0uc-6" value="" style="ellipse;whiteSpace=wrap;html=1;aspect=fixed;" vertex="1" parent="1">
          <mxGeometry x="980" y="470" width="30" height="30" as="geometry" />
        </mxCell>
        <mxCell id="-s2COhOGXW_Y84IHk0uc-7" value="galleria" style="text;html=1;align=center;verticalAlign=middle;whiteSpace=wrap;rounded=0;" vertex="1" parent="1">
          <mxGeometry x="1010" y="470" width="60" height="30" as="geometry" />
        </mxCell>
        <mxCell id="-s2COhOGXW_Y84IHk0uc-18" value="" style="ellipse;whiteSpace=wrap;html=1;aspect=fixed;fillColor=#000000;" vertex="1" parent="1">
          <mxGeometry x="1090" y="105" width="30" height="30" as="geometry" />
        </mxCell>
        <mxCell id="-s2COhOGXW_Y84IHk0uc-19" value="nome" style="text;html=1;align=center;verticalAlign=middle;whiteSpace=wrap;rounded=0;" vertex="1" parent="1">
          <mxGeometry x="1120" y="105" width="60" height="30" as="geometry" />
        </mxCell>
        <mxCell id="-s2COhOGXW_Y84IHk0uc-25" value="" style="ellipse;whiteSpace=wrap;html=1;aspect=fixed;" vertex="1" parent="1">
          <mxGeometry x="-10" y="390" width="30" height="30" as="geometry" />
        </mxCell>
        <mxCell id="-s2COhOGXW_Y84IHk0uc-26" value="nome" style="text;html=1;align=center;verticalAlign=middle;whiteSpace=wrap;rounded=0;" vertex="1" parent="1">
          <mxGeometry x="20" y="390" width="60" height="30" as="geometry" />
        </mxCell>
        <mxCell id="-s2COhOGXW_Y84IHk0uc-27" value="" style="ellipse;whiteSpace=wrap;html=1;aspect=fixed;" vertex="1" parent="1">
          <mxGeometry x="-10" y="430" width="30" height="30" as="geometry" />
        </mxCell>
        <mxCell id="-s2COhOGXW_Y84IHk0uc-28" value="cognome" style="text;html=1;align=center;verticalAlign=middle;whiteSpace=wrap;rounded=0;" vertex="1" parent="1">
          <mxGeometry x="20" y="430" width="60" height="30" as="geometry" />
        </mxCell>
        <mxCell id="-s2COhOGXW_Y84IHk0uc-29" value="" style="ellipse;whiteSpace=wrap;html=1;aspect=fixed;fillColor=#000000;" vertex="1" parent="1">
          <mxGeometry x="-10" y="470" width="30" height="30" as="geometry" />
        </mxCell>
        <mxCell id="-s2COhOGXW_Y84IHk0uc-30" value="email" style="text;html=1;align=center;verticalAlign=middle;whiteSpace=wrap;rounded=0;" vertex="1" parent="1">
          <mxGeometry x="20" y="470" width="60" height="30" as="geometry" />
        </mxCell>
        <mxCell id="-s2COhOGXW_Y84IHk0uc-34" value="" style="ellipse;whiteSpace=wrap;html=1;aspect=fixed;" vertex="1" parent="1">
          <mxGeometry x="350" y="390" width="30" height="30" as="geometry" />
        </mxCell>
        <mxCell id="-s2COhOGXW_Y84IHk0uc-35" value="stato_ordine" style="text;html=1;align=center;verticalAlign=middle;whiteSpace=wrap;rounded=0;" vertex="1" parent="1">
          <mxGeometry x="384" y="390" width="76" height="30" as="geometry" />
        </mxCell>
        <mxCell id="-s2COhOGXW_Y84IHk0uc-36" value="" style="ellipse;whiteSpace=wrap;html=1;aspect=fixed;" vertex="1" parent="1">
          <mxGeometry x="350" y="430" width="30" height="30" as="geometry" />
        </mxCell>
        <mxCell id="-s2COhOGXW_Y84IHk0uc-37" value="nome_prodotto" style="text;html=1;align=center;verticalAlign=middle;whiteSpace=wrap;rounded=0;" vertex="1" parent="1">
          <mxGeometry x="384" y="430" width="86" height="30" as="geometry" />
        </mxCell>
        <mxCell id="-s2COhOGXW_Y84IHk0uc-38" value="" style="ellipse;whiteSpace=wrap;html=1;aspect=fixed;" vertex="1" parent="1">
          <mxGeometry x="350" y="470" width="30" height="30" as="geometry" />
        </mxCell>
        <mxCell id="-s2COhOGXW_Y84IHk0uc-39" value="prezzo" style="text;html=1;align=center;verticalAlign=middle;whiteSpace=wrap;rounded=0;" vertex="1" parent="1">
          <mxGeometry x="384" y="470" width="60" height="30" as="geometry" />
        </mxCell>
        <mxCell id="-s2COhOGXW_Y84IHk0uc-40" value="" style="ellipse;whiteSpace=wrap;html=1;aspect=fixed;" vertex="1" parent="1">
          <mxGeometry x="350" y="510" width="30" height="30" as="geometry" />
        </mxCell>
        <mxCell id="-s2COhOGXW_Y84IHk0uc-41" value="data_emissione" style="text;html=1;align=center;verticalAlign=middle;whiteSpace=wrap;rounded=0;" vertex="1" parent="1">
          <mxGeometry x="384" y="510" width="96" height="30" as="geometry" />
        </mxCell>
        <mxCell id="-s2COhOGXW_Y84IHk0uc-42" value="" style="ellipse;whiteSpace=wrap;html=1;aspect=fixed;" vertex="1" parent="1">
          <mxGeometry x="350" y="550" width="30" height="30" as="geometry" />
        </mxCell>
        <mxCell id="-s2COhOGXW_Y84IHk0uc-43" value="quantita_ord" style="text;html=1;align=center;verticalAlign=middle;whiteSpace=wrap;rounded=0;" vertex="1" parent="1">
          <mxGeometry x="384" y="550" width="76" height="30" as="geometry" />
        </mxCell>
        <mxCell id="-s2COhOGXW_Y84IHk0uc-47" style="edgeStyle=orthogonalEdgeStyle;rounded=0;orthogonalLoop=1;jettySize=auto;html=1;exitX=0;exitY=0.5;exitDx=0;exitDy=0;entryX=1;entryY=0.5;entryDx=0;entryDy=0;endArrow=doubleBlock;endFill=1;" edge="1" parent="1" source="-s2COhOGXW_Y84IHk0uc-44" target="-s2COhOGXW_Y84IHk0uc-45">
          <mxGeometry relative="1" as="geometry" />
        </mxCell>
        <mxCell id="-s2COhOGXW_Y84IHk0uc-72" style="edgeStyle=orthogonalEdgeStyle;rounded=0;orthogonalLoop=1;jettySize=auto;html=1;exitX=0.25;exitY=1;exitDx=0;exitDy=0;entryX=0;entryY=0.5;entryDx=0;entryDy=0;" edge="1" parent="1" source="-s2COhOGXW_Y84IHk0uc-44" target="-s2COhOGXW_Y84IHk0uc-60">
          <mxGeometry relative="1" as="geometry" />
        </mxCell>
        <mxCell id="-s2COhOGXW_Y84IHk0uc-73" style="edgeStyle=orthogonalEdgeStyle;rounded=0;orthogonalLoop=1;jettySize=auto;html=1;exitX=0.25;exitY=1;exitDx=0;exitDy=0;entryX=0;entryY=0.5;entryDx=0;entryDy=0;" edge="1" parent="1" source="-s2COhOGXW_Y84IHk0uc-44" target="-s2COhOGXW_Y84IHk0uc-62">
          <mxGeometry relative="1" as="geometry" />
        </mxCell>
        <mxCell id="-s2COhOGXW_Y84IHk0uc-74" style="edgeStyle=orthogonalEdgeStyle;rounded=0;orthogonalLoop=1;jettySize=auto;html=1;exitX=0.25;exitY=1;exitDx=0;exitDy=0;entryX=0;entryY=0.5;entryDx=0;entryDy=0;" edge="1" parent="1" source="-s2COhOGXW_Y84IHk0uc-44" target="-s2COhOGXW_Y84IHk0uc-64">
          <mxGeometry relative="1" as="geometry" />
        </mxCell>
        <mxCell id="-s2COhOGXW_Y84IHk0uc-75" style="edgeStyle=orthogonalEdgeStyle;rounded=0;orthogonalLoop=1;jettySize=auto;html=1;exitX=0.25;exitY=1;exitDx=0;exitDy=0;entryX=0;entryY=0.5;entryDx=0;entryDy=0;" edge="1" parent="1" source="-s2COhOGXW_Y84IHk0uc-44" target="-s2COhOGXW_Y84IHk0uc-66">
          <mxGeometry relative="1" as="geometry" />
        </mxCell>
        <mxCell id="-s2COhOGXW_Y84IHk0uc-76" style="edgeStyle=orthogonalEdgeStyle;rounded=0;orthogonalLoop=1;jettySize=auto;html=1;exitX=0.25;exitY=1;exitDx=0;exitDy=0;entryX=0;entryY=0.5;entryDx=0;entryDy=0;" edge="1" parent="1" source="-s2COhOGXW_Y84IHk0uc-44" target="-s2COhOGXW_Y84IHk0uc-68">
          <mxGeometry relative="1" as="geometry" />
        </mxCell>
        <mxCell id="-s2COhOGXW_Y84IHk0uc-78" style="edgeStyle=orthogonalEdgeStyle;rounded=0;orthogonalLoop=1;jettySize=auto;html=1;exitX=0.25;exitY=1;exitDx=0;exitDy=0;entryX=0;entryY=0.5;entryDx=0;entryDy=0;" edge="1" parent="1" source="-s2COhOGXW_Y84IHk0uc-44" target="-s2COhOGXW_Y84IHk0uc-70">
          <mxGeometry relative="1" as="geometry" />
        </mxCell>
        <mxCell id="-s2COhOGXW_Y84IHk0uc-44" value="Variazione" style="rounded=0;whiteSpace=wrap;html=1;" vertex="1" parent="1">
          <mxGeometry x="1240.5" y="320" width="120" height="60" as="geometry" />
        </mxCell>
        <mxCell id="-s2COhOGXW_Y84IHk0uc-45" value="subisce" style="rhombus;whiteSpace=wrap;html=1;" vertex="1" parent="1">
          <mxGeometry x="1090" y="310" width="80" height="80" as="geometry" />
        </mxCell>
        <mxCell id="-s2COhOGXW_Y84IHk0uc-54" value="" style="ellipse;whiteSpace=wrap;html=1;aspect=fixed;" vertex="1" parent="1">
          <mxGeometry x="980" y="510" width="30" height="30" as="geometry" />
        </mxCell>
        <mxCell id="-s2COhOGXW_Y84IHk0uc-55" value="colore" style="text;html=1;align=center;verticalAlign=middle;whiteSpace=wrap;rounded=0;" vertex="1" parent="1">
          <mxGeometry x="1010" y="510" width="50" height="30" as="geometry" />
        </mxCell>
        <mxCell id="-s2COhOGXW_Y84IHk0uc-56" value="" style="ellipse;whiteSpace=wrap;html=1;aspect=fixed;" vertex="1" parent="1">
          <mxGeometry x="980" y="550" width="30" height="30" as="geometry" />
        </mxCell>
        <mxCell id="-s2COhOGXW_Y84IHk0uc-57" value="taglia" style="text;html=1;align=center;verticalAlign=middle;whiteSpace=wrap;rounded=0;" vertex="1" parent="1">
          <mxGeometry x="1010" y="550" width="60" height="30" as="geometry" />
        </mxCell>
        <mxCell id="-s2COhOGXW_Y84IHk0uc-60" value="" style="ellipse;whiteSpace=wrap;html=1;aspect=fixed;" vertex="1" parent="1">
          <mxGeometry x="1320" y="390" width="30" height="30" as="geometry" />
        </mxCell>
        <mxCell id="-s2COhOGXW_Y84IHk0uc-61" value="quantita_finale" style="text;html=1;align=center;verticalAlign=middle;whiteSpace=wrap;rounded=0;" vertex="1" parent="1">
          <mxGeometry x="1360" y="390" width="80" height="30" as="geometry" />
        </mxCell>
        <mxCell id="-s2COhOGXW_Y84IHk0uc-62" value="" style="ellipse;whiteSpace=wrap;html=1;aspect=fixed;" vertex="1" parent="1">
          <mxGeometry x="1320" y="430" width="30" height="30" as="geometry" />
        </mxCell>
        <mxCell id="-s2COhOGXW_Y84IHk0uc-63" value="prezzo_pieno" style="text;html=1;align=center;verticalAlign=middle;whiteSpace=wrap;rounded=0;" vertex="1" parent="1">
          <mxGeometry x="1360" y="430" width="80" height="30" as="geometry" />
        </mxCell>
        <mxCell id="-s2COhOGXW_Y84IHk0uc-64" value="" style="ellipse;whiteSpace=wrap;html=1;aspect=fixed;" vertex="1" parent="1">
          <mxGeometry x="1320" y="470" width="30" height="30" as="geometry" />
        </mxCell>
        <mxCell id="-s2COhOGXW_Y84IHk0uc-65" value="prezzo_offerta" style="text;html=1;align=center;verticalAlign=middle;whiteSpace=wrap;rounded=0;" vertex="1" parent="1">
          <mxGeometry x="1360" y="470" width="70" height="30" as="geometry" />
        </mxCell>
        <mxCell id="-s2COhOGXW_Y84IHk0uc-66" value="" style="ellipse;whiteSpace=wrap;html=1;aspect=fixed;" vertex="1" parent="1">
          <mxGeometry x="1320" y="510" width="30" height="30" as="geometry" />
        </mxCell>
        <mxCell id="-s2COhOGXW_Y84IHk0uc-67" value="inizio_offerta" style="text;html=1;align=center;verticalAlign=middle;whiteSpace=wrap;rounded=0;" vertex="1" parent="1">
          <mxGeometry x="1360" y="510" width="60" height="30" as="geometry" />
        </mxCell>
        <mxCell id="-s2COhOGXW_Y84IHk0uc-68" value="" style="ellipse;whiteSpace=wrap;html=1;aspect=fixed;" vertex="1" parent="1">
          <mxGeometry x="1320" y="550" width="30" height="30" as="geometry" />
        </mxCell>
        <mxCell id="-s2COhOGXW_Y84IHk0uc-69" value="fine_offerta" style="text;html=1;align=center;verticalAlign=middle;whiteSpace=wrap;rounded=0;" vertex="1" parent="1">
          <mxGeometry x="1360" y="550" width="60" height="30" as="geometry" />
        </mxCell>
        <mxCell id="-s2COhOGXW_Y84IHk0uc-70" value="" style="ellipse;whiteSpace=wrap;html=1;aspect=fixed;" vertex="1" parent="1">
          <mxGeometry x="1320" y="590" width="30" height="30" as="geometry" />
        </mxCell>
        <mxCell id="-s2COhOGXW_Y84IHk0uc-71" value="Text" style="text;html=1;align=center;verticalAlign=middle;whiteSpace=wrap;rounded=0;" vertex="1" parent="1">
          <mxGeometry x="1360" y="590" width="60" height="30" as="geometry" />
        </mxCell>
        <mxCell id="-s2COhOGXW_Y84IHk0uc-79" value="" style="endArrow=none;html=1;rounded=0;" edge="1" parent="1">
          <mxGeometry width="50" height="50" relative="1" as="geometry">
            <mxPoint x="940" y="170" as="sourcePoint" />
            <mxPoint x="980" y="170" as="targetPoint" />
          </mxGeometry>
        </mxCell>
      </root>
    </mxGraphModel>
  </diagram>
</mxfile>
